<svg xmlns="http://www.w3.org/2000/svg" width="746.741" height="223.999" fill="none" viewBox="0 0 746.741 223.999"><path fill="#000" d="M219.016 0H4.977A4.974 4.974 0 0 0 0 4.978v214.039c0 1.32.524 2.586 1.458 3.519a4.97 4.97 0 0 0 3.519 1.458h214.039a4.974 4.974 0 0 0 4.978-4.977V4.978A4.974 4.974 0 0 0 219.016 0m-69.687 144.352a4.977 4.977 0 0 1-4.977 4.978h-64.71a4.98 4.98 0 0 1-3.52-1.458 4.98 4.98 0 0 1-1.457-3.52v-64.71a4.977 4.977 0 0 1 4.977-4.977h64.71c1.32 0 2.586.524 3.519 1.458a4.97 4.97 0 0 1 1.458 3.519zm517.8-69.679H602.42a4.977 4.977 0 0 0-4.978 4.977v64.71a4.98 4.98 0 0 0 4.978 4.978h64.709a4.98 4.98 0 0 0 4.978-4.978V79.65a4.977 4.977 0 0 0-4.978-4.977M592.434.006h-64.709a4.98 4.98 0 0 0-4.978 4.978v64.709a4.98 4.98 0 0 0 4.978 4.978h64.709a4.98 4.98 0 0 0 4.978-4.978V4.984a4.977 4.977 0 0 0-4.978-4.978m149.33 0h-64.71a4.98 4.98 0 0 0-4.978 4.978v64.709a4.98 4.98 0 0 0 4.978 4.978h64.71a4.977 4.977 0 0 0 4.977-4.978V4.984a4.977 4.977 0 0 0-4.977-4.978m-149.33 149.328h-64.709a4.977 4.977 0 0 0-4.978 4.977v64.71a4.98 4.98 0 0 0 4.978 4.978h64.709a4.98 4.98 0 0 0 4.978-4.978v-64.71a4.977 4.977 0 0 0-4.978-4.977m149.33 0h-64.71a4.977 4.977 0 0 0-4.978 4.977v64.71a4.98 4.98 0 0 0 4.978 4.978h64.71a4.977 4.977 0 0 0 4.977-4.978v-64.71a4.977 4.977 0 0 0-4.977-4.977M480.343.006h-64.709a4.98 4.98 0 0 0-4.978 4.978v64.709a4.98 4.98 0 0 0 4.978 4.978h64.709a4.98 4.98 0 0 0 4.978-4.978V4.984a4.98 4.98 0 0 0-4.978-4.978m0 149.328h-64.709a4.977 4.977 0 0 0-4.978 4.977v64.71a4.98 4.98 0 0 0 4.978 4.978h64.709a4.98 4.98 0 0 0 4.978-4.978v-64.71a4.977 4.977 0 0 0-4.978-4.977m-69.687-69.748a4.98 4.98 0 0 0-4.978-4.977h-69.687V4.978A4.98 4.98 0 0 0 331.013 0h-64.709a4.974 4.974 0 0 0-4.978 4.978v213.927a4.974 4.974 0 0 0 4.978 4.977h64.709a4.977 4.977 0 0 0 4.978-4.977v-69.631h69.687a4.98 4.98 0 0 0 4.978-4.978z"/></svg>